<?xml version="1.0" encoding="utf-8"?>
<!-- Generator: Adobe Illustrator 19.0.0, SVG Export Plug-In . SVG Version: 6.00 Build 0)  -->
<svg version="1.1" id="Layer_1" xmlns="http://www.w3.org/2000/svg" xmlns:xlink="http://www.w3.org/1999/xlink" x="0px" y="0px"
	 viewBox="0 0 512 512" style="enable-background:new 0 0 512 512;" xml:space="preserve">
<g id="XMLID_1_">
	<path id="XMLID_8_" d="M506.4,145c-5.6-13-15.8-22.3-28.8-26.9c-5.6-1.9-12.1-2.8-18.6-2.8c-26.9,0-53.9,20.4-67.8,51.1
		c-16.7,38.1-7.4,75.3,23.2,86.4c5.6,1.9,12.1,3.7,19.5,3.7c26.9,0,54.8-18.6,68.8-46.5C513.9,186.8,514.8,163.5,506.4,145z
		 M120.8,165.4c-13.9-30.7-40.9-51.1-67.8-51.1c-6.5,0-12.1,0.9-18.6,2.8c-13,4.6-22.3,13.9-28.8,26.9c-8.4,18.6-7.4,42.7,3.7,64.1
		c13.9,27.9,41.8,46.5,68.8,46.5c6.5,0,13-0.9,19.5-3.7C127.3,240.7,137.5,203.5,120.8,165.4L120.8,165.4z M179.3,161.7
		c2.8,0,4.6,0,7.4,0c13.9-0.9,26.9-7.4,37.2-17.7c16.7-16.7,21.4-42.7,17.7-69.7C236,32.5,210,1.9,174.7,0.9c0,0-4.6,0-7.4,0
		c-15.8,0.9-29.7,8.4-40.9,19.5c-16.7,16.7-24.2,41.8-21.4,66C110.6,127.3,143.1,159.8,179.3,161.7z M256.5,216.5
		c-85.5,0-170,118.9-170,216.5c0,28.8,14.9,52,28.8,62.3C132.9,507.4,145,512,171,512c16.7,0,26.9-2.8,34.4-7.4
		c14.9-8.4,31.6-13,49.2-13h4.6c17.7,0,33.5,4.6,49.2,13c8.4,4.6,17.7,7.4,34.4,7.4c26,0,38.1-4.6,55.8-16.7
		c13.9-9.3,28.8-32.5,28.8-62.3C426.5,335.4,342,216.5,256.5,216.5z M326.2,160.8c2.8,0,4.6,0,7.4,0c36.2-0.9,69.7-34.4,74.3-75.3
		c2.8-25.1-4.6-49.2-21.4-66C375.4,8.4,361.5,1.9,345.7,0c-2.8,0-8.4,0-8.4,0C302,0.9,275,31.6,270.4,73.4
		c-3.7,26.9,0.9,53,17.7,69.7C299.2,153.3,312.2,159.8,326.2,160.8L326.2,160.8z"/>
</g>
</svg>
